#tb 0: 83333/500000
0,          0,          0,        1,    11520, 0xaf416a66
0,          1,          1,        1,    11520, 0x8ab76654
0,          2,          2,        1,    11520, 0xd22880c4
0,          3,          3,        1,    11520, 0x9d2f612a
0,          4,          4,        1,    11520, 0xf538600a
0,          5,          5,        1,    11520, 0x371d64e6
0,          6,          6,        1,    11520, 0x49043fbf
0,          7,          7,        1,    11520, 0x49043fbf
0,          8,          8,        1,    11520, 0x12d16528
0,          9,          9,        1,    11520, 0x1e0a6109
0,         10,         10,        1,    11520, 0x9d2f612a
0,         11,         11,        1,    11520, 0x96e083ca
0,         12,         12,        1,    11520, 0x8ab76654
0,         13,         13,        1,    11520, 0x43ac6de7
0,         14,         14,        1,    11520, 0x43ac6de7
0,         15,         15,        1,    11520, 0x5c3e6819
0,         16,         16,        1,    11520, 0x22758af0
0,         17,         17,        1,    11520, 0x88845eba
0,         18,         18,        1,    11520, 0x4b38848a
0,         19,         19,        1,    11520, 0x4f7495d3
0,         20,         20,        1,    11520, 0x736b702c
0,         21,         21,        1,    11520, 0x736b702c
0,         22,         22,        1,    11520, 0x4f7495d3
0,         23,         23,        1,    11520, 0x4b38848a
0,         24,         24,        1,    11520, 0x88845eba
0,         25,         25,        1,    11520, 0x22758af0
0,         26,         26,        1,    11520, 0x5c3e6819
0,         27,         27,        1,    11520, 0x43ac6de7
0,         28,         28,        1,    11520, 0x43ac6de7
